<?xml version="1.0" standalone="no"?>
<!DOCTYPE svg PUBLIC "-//W3C//DTD SVG 20010904//EN"
 "http://www.w3.org/TR/2001/REC-SVG-20010904/DTD/svg10.dtd">
<svg version="1.0" xmlns="http://www.w3.org/2000/svg"
 width="200.000000pt" height="200.000000pt" viewBox="0 0 200.000000 200.000000"
 preserveAspectRatio="xMidYMid meet">
<metadata>
Created by potrace 1.14, written by Peter Selinger 2001-2017
</metadata>
<g transform="translate(0.000000,200.000000) scale(0.100000,-0.100000)"
fill="#000000" stroke="none">
<path d="M380 1939 c-42 -4 -97 -15 -122 -27 -95 -42 -178 -147 -194 -247 -8
-52 -9 -1593 -1 -1602 5 -5 170 -8 255 -4 l22 1 0 328 0 328 660 0 660 0 0
-328 c0 -255 3 -328 13 -329 15 -1 237 -1 257 0 13 1 15 95 14 784 0 430 -4
800 -8 822 -17 94 -91 196 -172 238 -72 37 -107 39 -714 41 -327 0 -629 -2
-670 -5z m1262 -296 c17 -15 18 -39 18 -330 l0 -313 -60 0 c-33 0 -278 0 -545
0 -267 0 -537 0 -600 0 l-115 0 0 312 c0 276 2 314 17 330 15 17 48 18 641 18
568 0 627 -2 644 -17z"/>
</g>
</svg>
